# xmcd
#
# Track frame offsets:
#	150
#	27322
#	48373
#	64262
#	89174
#	104825
#	121686
#	143201
#	161095
#	176703
#	196375
#	217953
#	233042
#	250548
#	265802
#	280550
#
# Disc length: 3962 seconds
#
# Revision: 0
# Processed by: cddbd v1.5.2PL0 Copyright (c) Steve Scherf et al.
# Submitted via: audiograbber 1.83.01
#
DISCID=e70f7810
DTITLE=Διάφοροι - 48 Αδέσποτα ρεμπέτικα 2
DYEAR=1900
DGENRE=Ρεμπέτικα
TTITLE0=Γιάννης Λεμπέσης - Της τριανταφυλιάς τα φύλλα
TTITLE1=Γιάννης Λεμπέσης - Ρίχνω ζάρια
TTITLE2=Γιάννης Λεμπέσης - Εχασα μαντήλι
TTITLE3=Γιάννης Λεμπέσης - Γιώργος Ζορμπάς - Μήλο μου και μανταρίνι
TTITLE4=Γιάννης Λεμπέσης - Σακραμέντο - Μπόστον - Ν Υόρκη 
TTITLE5=Γιάννης Λεμπέσης - Ασημένια - Γυαλιτζαριανή
TTITLE6=Ασημένια - Έαβησε φως μου ο σεβντάς
TTITLE7=Γιάννης Λεμπέσης - Τώρα το βράδυ με δροσιά
TTITLE8=Γιώργος Ζορμπάς - Μανάκι μου
TTITLE9=Γιάννης Λεμπέσης - Αμάν γυάλα
TTITLE10=Ασημένια - Ψαράδες
TTITLE11=Γιάννης Λεμπέσης - Ασημένια - Τα μαλιά σου κι ελιά σου
TTITLE12=Ορχηστρικό - Αϊ Βαλιώτικο
TTITLE13=Ασημένια - Εχε γειά - πάντα γειά
TTITLE14=Ορχηστρικό - Γρήγορο ταταυλιανό - Χασάπικο
TTITLE15=Νίκος Καρατάσος - Μνήμες
EXTD=astos
EXTT0=
EXTT1=
EXTT2=
EXTT3=
EXTT4=
EXTT5=
EXTT6=
EXTT7=
EXTT8=
EXTT9=
EXTT10=
EXTT11=
EXTT12=
EXTT13=
EXTT14=
EXTT15=
PLAYORDER=
